# xmcd
#
# Track frame offsets:
#	150
#	15392
#	36296
#	50096
#	58183
#	73423
#	94300
#	113728
#	124209
#	139057
#	153582
#	172734
#	186832
#	199476
#	213319
#
# Disc length: 3030 seconds
#
# Revision: 0
# Processed by: cddbd v1.5.2PL0 Copyright (c) Steve Scherf et al.
# Submitted via: audiograbber 1.83.01
#
DISCID=e30bd40f
DTITLE=Sliccs Gotcha - Rest In Paradi$e
DYEAR=2012
DGENRE=Gangsta
TTITLE0=They Ain't (Gangsta Part 1)
TTITLE1=What Are You Feelin?
TTITLE2=Wanted Dead Or Alive
TTITLE3=Like Obama
TTITLE4=Way I'm Leanin
TTITLE5=Money Don't Spell Real Nigga
TTITLE6=Diamond In The Back
TTITLE7=Young Niggaz
TTITLE8=I'm On
TTITLE9=2 Alicias
TTITLE10=Gone Be Alright
TTITLE11=What We Grind Fo
TTITLE12=Change
TTITLE13=On Tha Blocc
TTITLE14=Used 2 Shoot Outs (Gangsta Part 2)
EXTD=
EXTT0=
EXTT1=
EXTT2=
EXTT3=
EXTT4=
EXTT5=
EXTT6=
EXTT7=
EXTT8=
EXTT9=
EXTT10=
EXTT11=
EXTT12=
EXTT13=
EXTT14=
PLAYORDER=
